<svg viewBox="0 0 816 756" xmlns="http://www.w3.org/2000/svg" xmlns:xlink="http://www.w3.org/1999/xlink"><clipPath id="a"><path d="m0 0h816v756h-816z"/></clipPath><g clip-path="url(#a)"><path d="m227.72 455.51c-.51-1.54-23.5-40.94-28.54-52.56s-27.12-68.19-33.32-81.76-51.53-128.63-54.63-135.61-12.4-15.88-14.73-22.47-3.87-17.82-16.66-17.82-34.29 5.42-39.52-5.43 5.42-14.72 13.17-14.14 23.83 1.36 31-2.91-1-14.53-7.75-20.14-22.47-18.21-21.74-29.45 11.09-11.22 15.54-9.49 13 9.1 18 14.91a49.07 49.07 0 0 0 18.46 13.57c7.17 2.9 8.53 2.51 8.53-3.3s-2.33-19.37-4.26-24.8-8-13-6.2-19.37 8.71-8.52 11-8.14 7.75-.58 12 11.82 6 21.12 7.75 26.74 4.26 17 13.56 21.69 13.37 4.65 15.89-.77 7.55-18.21 16.85-19.57 16.47 4.46 16.47 12-3.88 7.75-8.53 13.57-5.81 6.58-7.36 10.84-4.07 11.82-7.75 15.5-2.32 10.08-1.35 14.73 6.58 23.24 20.14 45.33 45.53 77.88 50.57 86.21 41.84 73.06 57.92 87.95v35.46z" fill="#faaf7e"/><path d="m227.72 456.45a1.26 1.26 0 0 1 -.27 0 .94.94 0 0 1 -.61-.59c-.23-.59-3-5.52-6.24-11.24-7.52-13.3-18.86-33.4-22.28-41.26-2.07-4.8-7-17-12.61-31.15-8-20-17.06-42.64-20.7-50.59-3.8-8.32-22-54.1-36.69-90.88-9-22.57-16.75-42-17.94-44.74-1.43-3.22-4.32-7-7.11-10.63-3.13-4.09-6.37-8.32-7.64-11.91-.31-.87-.6-1.82-.91-2.82-2-6.41-4.44-14.38-14.88-14.38-3 0-6.52.3-10.23.63-12.14 1-25.87 2.24-30.13-6.58-2.44-5.08-1.4-8.43-.09-10.35 2.78-4.07 9.16-5.53 14.17-5.13 15 1.12 25.51.17 30.45-2.78a4.25 4.25 0 0 0 2.32-3.47c.34-4.34-5-10.9-10.18-15.16l-.69-.56c-7.18-5.99-22.13-18.36-21.35-29.71.3-4.3 2-7.56 5-9.42 3.68-2.34 8.7-2.09 11.81-.87 4.69 1.85 13.29 9.34 18.34 15.14a47.69 47.69 0 0 0 18 13.31c2.82 1.14 5.56 2.12 6.46 1.52.7-.47.78-2.36.78-4 0-5.69-2.31-19.19-4.2-24.48a45.15 45.15 0 0 0 -2.4-5.12c-2.41-4.66-5.15-10-3.82-14.81 1.86-6.84 9.36-9.22 12.09-8.82a5.73 5.73 0 0 0 .8.09c2.78.26 8 .72 11.94 12.35 2.81 8.16 4.51 14.65 5.87 19.87.69 2.67 1.29 5 1.89 6.89.17.55.35 1.15.54 1.79 1.73 5.81 4.56 15.41 12.6 19.41 5.81 2.91 9.24 3.82 11.48 3a5.77 5.77 0 0 0 3.15-3.38l.65-1.41c2.74-6.07 7.84-17.36 16.9-18.68a16.35 16.35 0 0 1 13.14 3.47 12.41 12.41 0 0 1 4.4 9.51c0 5.63-2.13 7.59-4.82 10.08a35.37 35.37 0 0 0 -3.91 4.07c-1 1.22-1.81 2.23-2.51 3.09-2.64 3.2-3.53 4.28-4.7 7.49l-.38 1c-1.61 4.48-4 11.25-7.58 14.79-3.31 3.29-2.06 9.34-1.14 13.76 1.12 5.35 6.86 23.66 20.06 45.15 8.92 14.53 25.59 43.27 37.75 64.24 6.2 10.69 11.1 19.13 12.81 22 .66 1.07 1.83 3.08 3.43 5.8 11.06 18.89 40.43 69.07 54.33 82a.92.92 0 0 1 .3.68v35.44a.93.93 0 0 1 -.36.74l-74.52 57.41a.92.92 0 0 1 -.57.2zm-147.88-312.1c11.8 0 14.61 9.08 16.65 15.7.31 1 .59 1.9.89 2.75 1.17 3.31 4.32 7.42 7.37 11.4 2.86 3.73 5.81 7.59 7.33 11 1.21 2.72 8.61 21.29 18 44.8 14.65 36.76 32.87 82.53 36.65 90.8 3.65 8 12.73 30.67 20.73 50.67 5.65 14.12 10.53 26.32 12.6 31.1 3.37 7.77 14.69 27.82 22.19 41.09 3.26 5.77 5 8.9 5.83 10.42l73.26-56.45v-34.57c-14.22-13.5-43.36-63.28-54.38-82.1-1.59-2.71-2.76-4.71-3.4-5.78-1.73-2.86-6.63-11.31-12.84-22-12.16-21-28.81-49.69-37.73-64.21-13.33-21.71-19.15-40.3-20.26-45.62-1-4.95-2.4-11.57 1.61-15.58 3.25-3.24 5.6-9.78 7.15-14.1l.38-1c1.28-3.52 2.37-4.85 5-8.05.7-.85 1.53-1.84 2.5-3.07a37.29 37.29 0 0 1 4.1-4.27c2.63-2.43 4.22-3.89 4.22-8.71a10.57 10.57 0 0 0 -3.76-8.1 14.55 14.55 0 0 0 -11.65-3c-8 1.18-12.89 11.86-15.49 17.61l-.65 1.43c-1.08 2.34-2.43 3.71-4.22 4.34-2.78 1-6.52.07-12.92-3.13-8.77-4.38-11.74-14.46-13.51-20.49-.18-.63-.36-1.22-.53-1.76-.6-2-1.21-4.28-1.92-7-1.35-5.19-3-11.64-5.81-19.74-3.61-10.48-7.84-10.86-10.36-11.09-.35 0-.66-.06-.93-.11-1.85-.31-8.35 1.46-10 7.46-1.14 4.18 1.42 9.12 3.67 13.48a47 47 0 0 1 2.51 5.34c2 5.54 4.31 19.15 4.31 25.11 0 2.72-.28 4.6-1.61 5.5-1.55 1-4 .37-8.2-1.35a49.45 49.45 0 0 1 -18.76-13.82c-4.81-5.55-13.25-12.93-17.66-14.66-2.25-.88-6.79-1.42-10.13.7-2.47 1.56-3.84 4.25-4.1 8-.72 10.4 13.73 22.36 20.68 28.1l.68.57c5.27 4.36 11.27 11.36 10.86 16.74a6.1 6.1 0 0 1 -3.19 4.91c-5.35 3.18-16 4.22-31.54 3-4.37-.26-10.14.88-12.49 4.32-1.5 2.2-1.42 5.06.22 8.49 3.71 7.68 16.78 6.55 28.29 5.54 3.72-.3 7.26-.61 10.36-.61z" fill="#010101"/><path d="m130.21 157.84a.89.89 0 0 1 -.79-.45c-.38-.62-9.09-15.32-2-30.7 7.18-15.6 20.63-13 20.79-12.92a.91.91 0 0 1 .71 1.09.9.9 0 0 1 -1.1.72c-.48-.1-12.15-2.34-18.72 11.88-6.69 14.5 1.8 28.83 1.88 29a.92.92 0 0 1 -.31 1.27 1 1 0 0 1 -.46.11z" fill="#010101"/><path d="m588.28 461.31c.52-1.55 23.51-40.94 28.54-52.57s27.12-68.19 33.32-81.75 51.54-128.64 54.64-135.61 12.39-15.89 14.72-22.48 3.87-17.82 16.66-17.82 34.29 5.43 39.52-5.42-5.42-14.73-13.17-14.15-23.83 1.36-31-2.9 1-14.53 7.75-20.15 22.47-18.21 21.74-29.46-11-11.23-15.5-9.49-13 9.11-18 14.92a49 49 0 0 1 -18.5 13.57c-7.17 2.91-8.53 2.52-8.53-3.29s2.33-19.38 4.27-24.8 7.94-13 6.2-19.37-8.68-8.54-11.01-8.14-7.75-.58-12 11.82-6 21.11-7.75 26.73-4.26 17-13.56 21.7-13.37 4.65-15.89-.78-7.55-18.21-16.85-19.56-16.47 4.45-16.47 12 3.88 7.75 8.53 13.56 5.81 6.59 7.36 10.85 4.07 11.82 7.75 15.5 2.32 10.07 1.35 14.72-6.58 23.25-20.14 45.33-45.53 77.88-50.57 86.21-41.84 73.07-57.92 88v35.42z" fill="#faaf7e"/><path d="m588.26 462.23a.93.93 0 0 1 -.55-.18l-74.52-57.41a1 1 0 0 1 -.36-.74v-35.45a1 1 0 0 1 .3-.69c13.91-12.88 43.29-63.06 54.34-81.95 1.59-2.71 2.77-4.72 3.42-5.8 1.72-2.85 6.64-11.33 12.87-22.06 12.15-20.95 28.78-49.64 37.69-64.15 13.23-21.54 18.95-39.81 20-45 .94-4.5 2.2-10.57-1.11-13.88-3.54-3.54-6-10.31-7.59-14.79l-.37-1c-1.17-3.21-2.06-4.28-4.7-7.49-.71-.86-1.54-1.86-2.52-3.09a35.19 35.19 0 0 0 -3.9-4.06c-2.7-2.49-4.83-4.46-4.83-10.08a12.45 12.45 0 0 1 4.41-9.52 16.43 16.43 0 0 1 13.16-3.5c9.06 1.31 14.17 12.61 16.92 18.68l.64 1.41c.86 1.85 1.86 2.92 3.14 3.37 2.26.79 5.67-.13 11.48-3 8-4 10.87-13.62 12.56-19.36.19-.64.36-1.24.53-1.79.6-1.9 1.19-4.18 1.88-6.83 1.37-5.23 3.07-11.74 5.88-19.93 4-11.62 9.17-12.09 12-12.34.3 0 .56 0 .79-.09 2.73-.43 10.23 2 12.09 8.81 1.33 4.87-1.4 10.15-3.81 14.8a43.55 43.55 0 0 0 -2.4 5.13c-1.89 5.29-4.21 18.79-4.21 24.48 0 1.6.08 3.49.78 4 .88.59 3.63-.38 6.46-1.52a47.64 47.64 0 0 0 18-13.32c5.06-5.83 13.65-13.31 18.38-15.17 3.11-1.22 8.14-1.46 11.81.87 3 1.86 4.66 5.12 5 9.43.78 11.36-14.18 23.73-21.38 29.68l-.66.54c-5.14 4.27-10.52 10.83-10.18 15.17a4.27 4.27 0 0 0 2.32 3.47c4.94 2.93 15.45 3.88 30.45 2.78 5-.4 11.4 1.06 14.17 5.12 1.31 1.92 2.35 5.28-.09 10.35-4.25 8.83-18 7.62-30.12 6.58-3.71-.33-7.22-.63-10.24-.63-10.43 0-12.89 8-14.87 14.38-.31 1-.6 2-.91 2.82-1.27 3.59-4.51 7.82-7.65 11.92-2.79 3.64-5.67 7.41-7.11 10.62-1.19 2.7-9 22.18-17.93 44.73-14.66 36.8-32.9 82.58-36.7 90.89-3.62 7.93-12.65 30.49-20.61 50.4-5.7 14.23-10.61 26.52-12.7 31.34-3.41 7.87-14.77 28-22.29 41.29-3.22 5.71-6 10.64-6.23 11.22a1 1 0 0 1 -.63.57.84.84 0 0 1 -.3-.03zm-73.57-58.79 73.31 56.45c.81-1.53 2.57-4.65 5.82-10.4 7.5-13.28 18.83-33.34 22.2-41.12 2.08-4.8 7-17.08 12.68-31.29 8-19.93 17-42.51 20.65-50.48 3.78-8.27 22-54 36.66-90.81 9.36-23.5 16.76-42.07 18-44.79 1.52-3.42 4.47-7.28 7.33-11 3-4 6.19-8.08 7.36-11.4.31-.85.59-1.78.89-2.75 2-6.62 4.85-15.69 16.65-15.69 3.1 0 6.64.31 10.4.64 11.51 1 24.58 2.14 28.29-5.54 1.65-3.43 1.72-6.28.23-8.49-2.35-3.44-8.13-4.59-12.5-4.32-15.58 1.19-26.19.14-31.55-3a6.12 6.12 0 0 1 -3.22-4.93c-.41-5.37 5.59-12.37 10.86-16.74l.66-.54c6.95-5.75 21.42-17.71 20.7-28.12-.26-3.75-1.63-6.44-4.09-8-3.34-2.12-7.89-1.58-10.14-.71-4.41 1.73-12.85 9.12-17.65 14.67a49.56 49.56 0 0 1 -18.76 13.81c-4.23 1.71-6.65 2.38-8.2 1.34-1.33-.9-1.61-2.77-1.61-5.5 0-6 2.35-19.57 4.32-25.11a46.17 46.17 0 0 1 2.51-5.35c2.25-4.35 4.81-9.29 3.67-13.46-1.63-6-8.12-7.81-10-7.46l-.93.1c-2.53.23-6.75.61-10.36 11.1-2.87 8.09-4.55 14.56-5.87 19.76-.69 2.67-1.3 5-1.9 6.92-.17.53-.34 1.12-.52 1.75-1.78 6-4.74 16.11-13.51 20.5-6.4 3.2-10.15 4.09-12.93 3.13-1.79-.63-3.13-2-4.22-4.34l-.65-1.43c-2.6-5.75-7.43-16.44-15.49-17.61a14.45 14.45 0 0 0 -11.64 3 10.58 10.58 0 0 0 -3.76 8.11c0 4.81 1.58 6.27 4.22 8.71a36.49 36.49 0 0 1 4.1 4.27c1 1.22 1.79 2.21 2.5 3.07 2.64 3.2 3.73 4.52 5 8l.38 1.06c1.56 4.32 3.91 10.85 7.16 14.1 4 4 2.63 10.65 1.62 15.49-1.16 5.41-6.96 23.96-20.36 45.73-8.9 14.49-25.53 43.17-37.68 64.11-6.22 10.74-11.15 19.23-12.88 22.09-.64 1.07-1.82 3.08-3.4 5.78-11 18.82-40.17 68.61-54.39 82.1z" fill="#010101"/><path d="m685.79 163.64a1 1 0 0 1 -.48-.14.92.92 0 0 1 -.31-1.27c.08-.15 8.57-14.5 1.89-29-6.58-14.23-18.26-12-18.73-11.88a.89.89 0 0 1 -1.1-.72.92.92 0 0 1 .71-1.1c.15 0 13.6-2.7 20.8 12.92 7.1 15.38-1.61 30.08-2 30.71a.91.91 0 0 1 -.78.48z" fill="#010101"/><path d="m302.24 362.65 39.14 43.12 117.79 18.75 11.45-6.93 43.14-49.14s29.1 9 43 26.6 36.68 49.1 40.81 70.28l-54.25 94.54s17 67.16 23.25 89.38 16.53 64.06 21.18 94 9.3 50.11 9.82 76.46c0 0-99.71-8.78-203-2.58s-150.85 5.68-177.2 10.33c0 0-4.65-23.77 9.3-96.61s47.53-178.23 47.53-178.23-30-51.15-36.17-61.48-21.4-32-21.4-32 13.66-38.74 34.84-62 37.43-34.44 50.77-34.49z" fill="#fcdd61"/><path d="m217.39 828.41a.94.94 0 0 1 -.91-.76c-.19-1-4.52-24.76 9.3-96.95 13.37-69.82 45.16-170.78 47.43-177.94-2.69-4.59-30.1-51.36-35.95-61.12-6.11-10.19-21.22-31.76-21.37-32a.93.93 0 0 1 -.12-.84c.14-.39 14-39.19 35-62.31 21.58-23.69 37.93-34.75 51.44-34.79a.91.91 0 0 1 .69.31l38.92 42.87 117.18 18.66 11-6.67 43-49a1 1 0 0 1 1-.27c1.21.37 29.54 9.3 43.51 26.91 10.84 13.68 36.55 47.94 41 70.68a.89.89 0 0 1 -.1.64l-54.04 94.17c1.37 5.39 17.26 67.89 23.15 89 5.14 18.42 16.19 61.8 21.21 94.13 1.12 7.25 2.24 13.92 3.31 20.25 3.29 19.47 6.12 36.29 6.51 56.33a1 1 0 0 1 -.29.7 1.45 1.45 0 0 1 -.72.25c-1-.1-100.81-8.7-202.9-2.59-43.14 2.59-76.2 4-102.77 5.12-36.81 1.56-59 2.51-74.31 5.2zm.3-369.42c2.09 3 15.48 22.22 21.16 31.69 6.13 10.22 35.87 61 36.17 61.49a.88.88 0 0 1 .08.76c-.33 1.05-33.71 106.17-47.49 178.12-12.29 64.16-10.07 90.37-9.44 95.35 15.38-2.6 37.48-3.53 73.62-5.07 26.56-1.12 59.61-2.53 102.75-5.11 96.61-5.8 191.24 1.59 202.13 2.5-.47-19.45-3.25-36-6.46-55-1.07-6.34-2.2-13-3.32-20.27-5-32.25-16-75.54-21.16-93.93-6.14-22-23.09-88.72-23.26-89.39a.92.92 0 0 1 .1-.69l54.07-94.24c-4.55-22.34-29.85-56.05-40.56-69.55-12.54-15.8-37.9-24.73-42-26.1l-42.76 48.65a.67.67 0 0 1 -.22.19l-11.45 6.92a.93.93 0 0 1 -.63.13l-117.78-18.75a1 1 0 0 1 -.55-.3l-38.85-42.81c-12.88.28-28.68 11.15-49.66 34.18-19.6 21.51-32.89 56.85-34.49 61.24z" fill="#010101"/><path d="m543.38 560.8a.93.93 0 0 1 -.89-.66c-.7-2.26-4.18-13.64-4.18-15.25a.92.92 0 0 1 .92-.92.93.93 0 0 1 .93.92c0 1 2.4 9.2 4.1 14.71a.93.93 0 0 1 -.62 1.16 1.26 1.26 0 0 1 -.26.04z" fill="#010101"/><path d="m274.22 553.57h-.22a.94.94 0 0 1 -.69-1.12l3.1-13.43a.93.93 0 1 1 1.81.42l-3.1 13.43a.93.93 0 0 1 -.9.7z" fill="#010101"/><path d="m286.39 304.64s2.58 13.26 0 24.5c-2.46 10.56-1.82 10.92-1.3 11.69s3.79-1.72 8-5.78c0 0 .74 2.71 0 8.81s-.79 8.62-.79 8.62.18 2.3 4.84.78a31.55 31.55 0 0 0 7.56-3.68s1.35-.58 1.35.77-.48 12.3-.48 12.3-.3 3.45 4 1.36c4.55-2.23 17.43-17.24 17.43-17.24l164.58 5.62 9.17 11.12s2.71 2.05 2.91-2 1.66-11.26 2.45-12.59a42.43 42.43 0 0 1 3.75 2.32c1.48 1.09 6.37 4.1 6.71 1.26.25-2.13 1.79-17 1.79-17s.09-3.45 2.86-.68c2.13 2.13 5.88 5.52 6.85 4.94s-4.82-26.73-5.59-34.09 1.49-27.6 1.49-27.6-1.68-43-4.2-51-9.54-63.4-51.83-89c-18.2-11-42.28-17-65.77-16.18-26.64 1-52.57 10.45-69.25 25-28.19 24.54-32.84 41.49-37.78 54-1.92 4.85-7.32 27.73-8.53 44.17-1 13.14-.23 26.23-.58 30-.83 8.57.36 29.58.36 29.58z" fill="#242424"/><path d="m307.2 365.61a2.51 2.51 0 0 1 -1.48-.43 3 3 0 0 1 -1.11-2.61c0-.07.47-10.6.48-12.16h-.06a30.58 30.58 0 0 1 -7.63 3.71q-3.4 1.11-5 0a2.31 2.31 0 0 1 -1-1.63c0-.2.07-2.75.8-8.8a35.82 35.82 0 0 0 .25-6.79c-5.5 5.11-6.71 5-7.17 4.93a1.21 1.21 0 0 1 -.92-.54c-.76-1.07-1.31-1.86 1.15-12.43 2.55-10.9.05-24 0-24.1a.49.49 0 0 1 0-.12c-.05-.86-1.2-21.18-.43-29.7.13-1.36.1-4.08.08-7.52 0-6-.1-14.2.51-22.49 1.23-16.78 6.7-39.67 8.58-44.44.44-1.1.87-2.23 1.31-3.39 4.58-12 10.84-28.43 36.73-51 17-14.79 43.09-24.2 69.83-25.18 23.54-.89 47.74 5.07 66.29 16.3 37.3 22.61 47.27 67.59 51 84.51.5 2.27.89 4.07 1.19 5 2.53 8 4.18 49.44 4.24 51.2 0 .34-2.24 20.36-1.48 27.54.33 3.13 1.6 9.87 2.84 16.39 3.3 17.38 3.23 18 2.3 18.6-.55.32-1.84 1.08-8-5.08-.79-.79-1.12-.8-1.12-.8a3.88 3.88 0 0 0 -.15.84c0 .08-1.54 14.91-1.79 17a2.13 2.13 0 0 1 -1.25 1.81c-2.12.92-6.16-1.85-6.94-2.43s-2-1.29-2.74-1.74a58 58 0 0 0 -2 11.3c-.08 1.7-.6 2.79-1.54 3.23a3.07 3.07 0 0 1 -2.86-.52l-9.06-10.94-163.71-5.59c-2 2.31-13.1 15-17.44 17.13a6.39 6.39 0 0 1 -2.7.94zm-1.9-17.08a1.62 1.62 0 0 1 .92.26 1.75 1.75 0 0 1 .74 1.56c0 1.36-.47 11.9-.49 12.34 0 .18 0 .76.3 1 .13.09.7.32 2.33-.48 3.47-1.69 12.73-11.87 17.14-17a1 1 0 0 1 .74-.33l164.57 5.62a.92.92 0 0 1 .69.34l9.17 11.12c.1 0 .62.29.79.16s.42-.49.47-1.62c.19-4 1.66-11.46 2.58-13a.92.92 0 0 1 1.24-.34 42.76 42.76 0 0 1 3.85 2.39c2 1.45 4.41 2.54 5.11 2.22 0 0 .11 0 .14-.32.25-2.13 1.78-16.94 1.78-16.94 0-.26.11-2 1.37-2.47s2.65.8 3.08 1.23a30.12 30.12 0 0 0 5.35 4.52c-.18-2.53-1.62-10.12-2.8-16.38-1.25-6.55-2.54-13.32-2.87-16.54-.78-7.37 1.39-27 1.48-27.79 0-.29-1.7-42.85-4.15-50.58-.34-1-.72-2.78-1.25-5.18-3.71-16.72-13.55-61.13-50.18-83.33-18.23-11-42.08-16.78-65.25-16-26.33 1-52 10.22-68.68 24.73-25.54 22.23-31.71 38.41-36.21 50.22-.45 1.17-.88 2.3-1.32 3.41-1.85 4.69-7.24 27.29-8.46 43.89-.6 8.22-.54 16.39-.5 22.34 0 3.5 0 6.25-.09 7.71-.73 8.16.36 28.1.43 29.36s2.51 13.8-.05 24.82c-1.91 8.18-1.88 10-1.65 10.6.78-.35 2.87-1.79 6.8-5.58a.93.93 0 0 1 1.54.43c0 .12.78 3 0 9.17-.67 5.62-.77 8.21-.78 8.5a1.4 1.4 0 0 0 .24.19c.27.15 1.15.44 3.38-.29a30.68 30.68 0 0 0 7.32-3.56 2.83 2.83 0 0 1 1.18-.4z" fill="#010101"/><path d="m341.38 318.87c-.78.26-18.69 21.42-18.69 21.42l5.16 26.94 41.07 27.82 72.33-3.62 41.33-31.77 6.71-26.09-15.61-20.24z" fill="#652222"/><path d="m368.92 396a.94.94 0 0 1 -.52-.16l-41.07-27.84a.88.88 0 0 1 -.39-.6l-5.17-26.94a.94.94 0 0 1 .21-.77c18.08-21.36 18.8-21.6 19.1-21.71a1.17 1.17 0 0 1 .26 0l132.3-5.54c.3-.12.59.12.78.36l15.58 20.2a.94.94 0 0 1 .17.8l-6.72 26.09a1 1 0 0 1 -.33.51l-41.33 31.77a.89.89 0 0 1 -.52.19l-72.27 3.64zm-40.23-29.3 40.5 27.42 71.72-3.58 40.85-31.4 6.52-25.34-15-19.5-131.52 5.5c-1.63 1.55-11.65 13.24-18 20.77z" fill="#010101"/><path d="m369.84 381s6.15-13.11 30.82-13c22.39.13 30.93 1.29 38.23 11.62 2.95 4.18-12.4 15.62-26.22 15.35-20.37-.32-42.83-13.97-42.83-13.97z" fill="#e96f6f"/><path d="m413.16 396h-.5c-20.38-.39-43.07-14-43.3-14.14a.93.93 0 0 1 -.36-1.19c.26-.56 6.62-13.51 31.24-13.51h.42c22.23.14 31.35 1.21 39 12 .54.75.94 2-.11 4-2.79 5.26-15 12.84-26.39 12.84zm-42.05-15.27c4.15 2.37 23.83 13.07 41.58 13.4h.46c10.58 0 22.24-7.08 24.74-11.8.33-.63.65-1.5.24-2.08-7.17-10.15-15.5-11.1-37.48-11.23h-.39c-20.02-.02-27.4 8.98-29.15 11.69z" fill="#010101"/><path d="m528.72 279.54a12.36 12.36 0 0 0 -10.66-7.54c-4 0-12.82 4.83-12.2 19.95.24 6.08.51 6.64.38 7.94s-3.05.76-3.48.39-3.42-3.64-7.95-15.54c-1.42-3.72-1.93-8-2.55-14.56s-1.71-46.81-1.71-46.81a20.7 20.7 0 0 0 -9.69 5.43c-3.25 3.41-11.34-.23-12.78-2.52-3.36-5.35-1.2-12.87-3.49-16.28-.5-.74-3.4.95-6 5s-4.32 7-14.52 4.65c-11.71-2.67-19.77-5.62-22.09-7.75a20.41 20.41 0 0 1 -5.62-8.72c-1.79-6.3-3.1-22.47-5.81-22.47-1.66 0-2.66 5.68-3.49 10.28-.7 4-2.07 12.72-2.44 14.52s.3 4.45-6.28 6-25.64 3.25-30.41 3.68-7.74 1.89-10.71.72c-3.92-1.54-7.56-10-10.41-11 0 0-1.08 1.21-.77 7.16.12 2.42.07 3.79.19 4.65s-.28 1.58-3.87 3.68-12.6 7.44-17.25 7.56-5.58-.1-9.49-5.12-9-12.77-10.17-13.39 1 5 2 7.66 3.19 11.56 4.42 14.78c1.43 3.74 1.21 47.16 1.21 48.65s-4.61 17.49-5.92 19.78-2.51 1.29-2.51.48 0-11.49-.29-17.63c-.49-8.81-7-11.26-11.53-11.14s-13.17 6.83-13.42 19 .86 17.25 6.44 25c5 7.13 15.08 6 20.35 6.2 0 0 26.84 86.28 31.49 98.25 1.36 3.47 30.25 26.72 72.1 25.35s55.79-20.7 60.81-28.27 33.07-93.71 33.88-96c0 0 11.72 3.2 19.41-5.23 7.95-8.72 10.59-20.73 4.83-36.79zm-56.9 60.51c-3.18 5.67-15.54 25.75-30.61 33.71-13 6.88-43.91 19.24-71.51 3.23-24.31-14.1-35.57-47-28.19-51.79 1.82-1.18 9.3.85 21.82 5.55 8.43 3.16 23.4 6.85 40.95 6.85s31.29-4.65 44.22-9.3c12.71-4.56 15.2-5.73 22.16-6.59 6.42-.79 4.64 12.15 1.16 18.34z" fill="#faaf7e" stroke="#010101" stroke-linecap="round" stroke-linejoin="round" stroke-width="1.86"/><path d="m334.14 267c-.21 11.62 3.68 32.55 25.19 32.16s21.67-22.16 20.92-33.37-10.25-25.38-25.38-24.41-20.54 14.72-20.73 25.62z" fill="#fff"/><path d="m358.74 300c-6.88 0-12.52-2.15-16.79-6.42-8.17-8.16-8.83-21.39-8.74-26.69.21-11.59 6-25.48 21.6-26.48h1.54c15.07 0 24.07 14.43 24.82 25.32.92 13.24-1.16 22.43-6.35 28.09-3.68 4-8.89 6.11-15.48 6.23zm-23.67-33c-.07 3.95.31 17.46 8.19 25.34 4 4 9.48 6 16.05 5.87 6.06-.11 10.82-2 14.14-5.62 4.82-5.27 6.74-14 5.87-26.71-.72-10.48-9.67-24.59-24.39-23.55-14.35.92-19.67 13.87-19.86 24.67z" fill="#010101"/><path d="m429.55 267.14c-1.81 10.1-5.52 31.16 20.34 33.33 16.08 1.35 22.86-14.53 23.64-26.55s-.74-27.61-19.57-29.44c-18.4-1.79-23.8 19.25-24.41 22.66z" fill="#fff"/><g fill="#010101"><path d="m451.8 301.48c-.66 0-1.32 0-2-.08-8.45-.71-14.61-3.51-18.3-8.31-6.13-8-4.09-19.33-2.88-26.11 0-.25 4.49-23.55 23.12-23.55a22.73 22.73 0 0 1 2.3.12c22.23 2.17 20.85 23.44 20.4 30.43-.61 9.47-4.32 18-9.94 22.84a18.91 18.91 0 0 1 -12.7 4.66zm-21.34-34.17c-1.16 6.47-3.11 17.32 2.53 24.65 3.35 4.36 9.06 6.92 17 7.58a17.61 17.61 0 0 0 13.33-4.13c6.17-5.32 8.85-14.62 9.3-21.55.73-11.36-.41-26.67-18.73-28.46-.71-.07-1.4-.1-2.07-.1-17.11 0-21.28 21.69-21.34 22z"/><path d="m336 239.47a.91.91 0 0 1 -.42-.11.93.93 0 0 1 -.41-1.25 31.55 31.55 0 0 1 13.57-12.47 58.61 58.61 0 0 1 20.51-5.34c.5-.13.95.37 1 .88a.91.91 0 0 1 -.87 1 58.24 58.24 0 0 0 -19.79 5.16 30.2 30.2 0 0 0 -12.78 11.66 1 1 0 0 1 -.81.47z"/><path d="m470.44 239.47a.92.92 0 0 1 -.69-.3c-12.71-13.87-25.53-11.63-25.65-11.6a.93.93 0 0 1 -.35-1.83c.57-.1 13.93-2.51 27.37 12.17a.93.93 0 0 1 -.05 1.31 1 1 0 0 1 -.63.25z"/><path d="m403.93 328.2c-20.52 0-22.47-21-22.62-23.35-.1-1.35-.08-5.29-.08-9.1 0-3.2 0-6.84-.05-7.32a1 1 0 0 1 .75-1.07.94.94 0 0 1 1.08.69c.09.43.1 2.12.09 7.71 0 3.6 0 7.68.06 9 .23 3.6 2.33 21.59 20.77 21.6 17 0 19.17-15.63 19.44-20.43.19-3.43.38-16.61.38-16.74 0-.52.51-1 .94-.93a.94.94 0 0 1 .92.95c0 .54-.19 13.36-.39 16.83-.22 3.67-2.22 22.16-21.29 22.16z"/><path d="m406.35 423.9c-22.63 0-26.54-6.47-26.7-6.75a.93.93 0 0 1 1.62-.93c.09.14 4 5.82 25.08 5.82 20 0 23.89-4.51 23.93-4.55a.94.94 0 0 1 1.29-.16.92.92 0 0 1 .19 1.28c-.4.54-4.5 5.29-25.41 5.29z"/><path d="m300.6 294.52a.93.93 0 0 1 -.89-.67c-3-9.9-6.28-12.54-8.51-13-2.8-.62-4.94 1.9-5 1.93a.93.93 0 0 1 -1.41-1.21c.12-.13 2.83-3.32 6.75-2.54s7.31 5.65 9.92 14.31a.93.93 0 0 1 -.62 1.16.84.84 0 0 1 -.24.02z"/><path d="m289.62 290.61a1 1 0 0 1 -.43-.1.92.92 0 0 1 -.39-1.25c.07-.15 1.87-3.53 4.95-4.31a5.71 5.71 0 0 1 4.74 1 .93.93 0 0 1 -1 1.54 3.92 3.92 0 0 0 -3.23-.72c-2.28.57-3.75 3.34-3.77 3.37a.94.94 0 0 1 -.87.47z"/><path d="m511.33 292.82a1 1 0 0 1 -.37-.08.93.93 0 0 1 -.49-1.22c.2-.46 4.85-11.07 10.47-12a5.43 5.43 0 0 1 5 2.05.92.92 0 0 1 -.06 1.31.94.94 0 0 1 -1.32-.07 3.67 3.67 0 0 0 -3.33-1.45c-3.84.64-7.85 8.09-9.07 10.9a.93.93 0 0 1 -.83.56z"/><path d="m521.73 291.11a.92.92 0 0 1 -.92-.79c-.14-.92-.84-3.48-2.38-4.25a3.35 3.35 0 0 0 -3.11.42.93.93 0 0 1 -.9-1.63 5.11 5.11 0 0 1 4.85-.45c2.72 1.35 3.35 5.47 3.38 5.64a.93.93 0 0 1 -.79 1.05z"/><ellipse cx="358.43" cy="270.82" rx="2.47" ry="2.48"/><ellipse cx="450.97" cy="272.46" rx="2.47" ry="2.48"/></g></g></svg>