<svg enable-background="new 0 0 72 72" viewBox="0 0 72 72" xmlns="http://www.w3.org/2000/svg"><path d="m50.6 23.9c-.4-.6-.8-1.2-1.2-1.7l-44.1 14.6c0 1.7.2 3.4.6 5 0 .2.1.4.1.5l46-15.2c-.4-1.1-.8-2.1-1.4-3.2zm-12.7-9.6-28 9.2c-1.6 2.1-2.8 4.5-3.6 7l38.5-12.7c-2.1-1.4-4.5-2.7-6.9-3.5z" fill="#fff"/><path d="m36.8 14.1c-8.6-2.1-17.8.3-24.2 6.4-1 1-2 2-2.8 3.1l28-9.2c-.3-.2-.6-.3-1-.3zm7.9 3.8-38.4 12.7c-.6 2-.9 4.1-1 6.1l44.1-14.5c-1.4-1.6-3-3-4.7-4.3zm4.5 15.6c1.4-.6 3.6-1.2 3.8-2.3 0-1.4-.3-2.7-.9-4l-46 15.2c.5 1.8 1.2 3.5 1.9 5.2l39.9-13.2c.4-.4.8-.7 1.3-.9z" fill="red"/><path d="m7.5 47.7 27.8-9.2-7.8-25.4s-15.8.8-21.7 17.9c0 .1-2.7 7 1.7 16.7z" fill="#0b76b2"/><path d="m30.3 57.7c2 1.3 4.6 2.2 9.1.8s6.2-3.9 7-6.1zm15-16.6-9.9 3.3c.7 1.4.2 3.1-1.3 3.8-1.4.7-3.1.2-3.8-1.3 0 0 0 0 0-.1-.1-.3-.2-.5-.2-.8l-19.8 6.5.3.5c-.3.1-.4.4-.2.7 0 0 0 .1.1.1.4.7.7 1.5.9 2.3.1.8.1 1.4.7 1.7l34.6-11.4c-.6-1.7-1.1-3.5-1.4-5.3z" fill="red"/><path d="m47 50.1c.1-1.2-.1-2.4-.5-3.6l-34.5 11.4c.2.1.3.2.5.2 1.1.2 4.4-1.1 5.1-1.4.4 0 .6-.4.6-.7.1-.1.4-.1 1.7-.6s5.8-.7 8.3 1c.7.5 1.3 1 2 1.4l16.1-5.3c.5-.9.6-1.7.7-2.4zm-15.1-6.9c1.3-.5 2.8 0 3.5 1.2l9.9-3.2c0-.2-.1-.3-.1-.5-.2-2.4.8-4.7 2.7-6.2l-40 13c1 2.3 1.9 4.2 2.4 5l19.9-6.5c-.1-1.2.6-2.4 1.7-2.8z" fill="#fff"/><path d="m39.5 55.3c-.7 0-1.3-.5-1.3-1.2s.5-1.3 1.2-1.3 1.3.5 1.3 1.2c0 .5-.3 1-.8 1.2-.1.1-.3.1-.4.1z" fill="#fff"/><path d="m39.5 53.3c.4 0 .8.4.8.8 0 .3-.2.6-.5.7-.1 0-.2.1-.3.1-.4 0-.8-.4-.8-.8 0-.3.2-.6.5-.7.1-.1.2-.1.3-.1m0-.9c-.9 0-1.7.8-1.7 1.7s.8 1.7 1.7 1.7 1.7-.8 1.7-1.7c0-.2 0-.4-.1-.6-.3-.7-.9-1.1-1.6-1.1z"/><circle cx="39.5" cy="54.1" r=".5"/><ellipse cx="39.4" cy="54" fill="#fff" rx=".4" ry=".3" transform="matrix(.9272 -.3746 .3746 .9272 -17.3596 18.6904)"/><path d="m40.5 53.7c0 .1-.1.1 0 0-.1 0-.1 0 0 0-.4-.5-1-.6-1.5-.4-.4.2-.6.7-.5 1.1v.1h-.1c-.2-.6 0-1.2.6-1.5s1.3.1 1.5.7c.1 0 .1 0 0 0 0 0 0 .1 0 0zm-10.6 1.6c-.7 0-1.3-.5-1.3-1.2s.5-1.3 1.2-1.3 1.3.5 1.3 1.2c0 .5-.3 1-.8 1.2-.1.1-.2.1-.4.1z" fill="#fff"/><path d="m29.9 53.3c.4 0 .8.4.8.8 0 .3-.2.6-.5.7-.1 0-.2.1-.3.1-.4 0-.8-.4-.8-.8 0-.3.2-.6.5-.7.1-.1.2-.1.3-.1m0-.9c-.9 0-1.7.8-1.7 1.7s.8 1.7 1.7 1.7 1.7-.8 1.7-1.7c0-.2 0-.4-.1-.6-.3-.7-.9-1.1-1.6-1.1z"/><circle cx="29.9" cy="54.1" r=".5"/><ellipse cx="29.8" cy="54" fill="#fff" rx=".4" ry=".3" transform="matrix(.9272 -.3746 .3746 .9272 -18.0555 15.1124)"/><path d="m30.9 53.7c0 .1 0 .1 0 0-.4-.5-1-.6-1.5-.4-.4.2-.6.7-.5 1.1v.1h-.1c-.2-.6 0-1.2.6-1.5.7-.2 1.4.1 1.5.7.1 0 .1 0 0 0 .1.1.1.1 0 0zm17.9-14.6 1.3-.6 1.3 2.8-1.3.6zm-35.7 19.4h-.4c-.9 0-1.7-.7-1.7-1.6v-.1c-.1-.7-.3-1.4-.6-2l-.1-.2c-.4-.4-.5-1.1-.1-1.6.8-.5 1.7-.8 2.7-1h.2c.4 0 .7.2 1 .5l.1.1c.9.7 1.9 1.3 3 1.8.9.3 1.8 1 1.5 1.8s-1 .9-2.4 1.4c-.4.1-.8.3-1.1.4-.7.3-1.4.5-2.1.5z" fill="#fff"/><path d="m13.1 52.3c.3.1.7.3.9.5 1 .7 2 1.4 3.1 1.9.7.2 1.4.8 1.2 1.3s-.9.7-2.2 1.2c-1 .4-2 .7-3 .8h-.4c-.7 0-1.3-.5-1.3-1.2 0-.1 0-.1 0-.2-.1-.7-.3-1.5-.7-2.2-.3-.6-.6-.9-.2-1.3.8-.2 1.6-.5 2.6-.8zm0-.7h-.3c-1 .1-2 .5-2.9 1.1-.5.6-.5 1.5.1 2.1l.1.2c.3.6.5 1.2.6 1.8 0 1.1.9 2.1 2 2.1h.3c.8 0 1.6-.2 2.3-.5.3-.1.6-.2 1-.3h.1c1.5-.5 2.4-.7 2.7-1.6s-.4-1.9-1.8-2.3c-1-.5-2-1.1-2.9-1.8l-.1-.1c-.3-.5-.8-.7-1.2-.7z"/><path d="m31.9 43.2c-1.2.5-1.9 1.6-1.8 2.9l5.2-1.7c-.6-1.3-2.1-1.8-3.4-1.2zm-1.6 3.6c.5 1.5 2.2 2.2 3.6 1.7 1.5-.5 2.2-2.2 1.7-3.6-.1-.2-.2-.4-.3-.6l-5.2 1.7c.1.3.1.6.2.8z" fill="none"/><path d="m29.2 33.8 1 1.3 1.6-.5-1 1.3.9 1.3-1.5-.5-1 1.3v-1.6l-1.5-.5 1.6-.5c-.1 0-.1-1.6-.1-1.6zm-4.9-3.5 1 1.3 1.6-.5-1 1.3 1 1.3-1.5-.5-1 1.3v-1.6l-1.5-.5 1.6-.5c-.2 0-.2-1.6-.2-1.6zm-7.1 2.2.9 1.3 1.6-.5-1 1.3.9 1.3-1.6-.5-1 1.3v-1.6l-1.6-.5 1.6-.5zm4.9 3.5 1 1.3 1.6-.5-1 1.3 1 1.3-1.5-.5-1 1.3v-1.6l-1.5-.5 1.6-.5c-.2 0-.2-1.6-.2-1.6zm-7 2.2.9 1.3 1.6-.5-1 1.3 1 1.3-1.6-.4-1 1.3v-1.6l-1.6-.5 1.6-.5zm-5.1-3.4.9 1.3 1.6-.5-1 1.3.9 1.3-1.6-.5-.8 1.3v-1.6l-1.6-.5 1.6-.5zm-2 5.6.9 1.3 1.6-.5-1 1.3.9 1.3-1.5-.5-1 1.3v-1.6l-1.6-.5 1.7-.5zm18.3-16 1 1.3 1.6-.5-1 1.3.9 1.3-1.5-.5-1 1.3v-1.6l-1.5-.5 1.6-.5c-.1.1-.1-1.6-.1-1.6zm-4.9-3.4.9 1.3 1.6-.5-1 1.3 1 1.3-1.5-.5-1 1.3v-1.6l-1.6-.5 1.6-.5zm-7.2 2.2.9 1.3 1.6-.5-1 1.3.9 1.3-1.5-.5-1 1.3v-1.6l-1.5-.5 1.6-.5s.1-1.6 0-1.6zm5 3.5.9 1.3 1.6-.5-1 1.3 1 1.3-1.5-.5-1 1.3v-1.6l-1.5-.5 1.6-.5c-.1 0-.1-1.6-.1-1.6zm-7.1 2.2.9 1.3 1.6-.5-1 1.3.9 1.3-1.6-.5-1 1.3v-1.6l-1.3-.5 1.6-.5zm11.3-13.7.9 1.3 1.6-.5-1 1.3 1 1.3-1.5-.5-1 1.3v-1.6l-1.5-.5 1.6-.5c-.1 0-.1-1.6-.1-1.6zm-7.1 2.2.9 1.3 1.6-.5-1 1.3 1 1.3-1.6-.5-1 1.3v-1.6l-1.6-.5 1.6-.5c.1.1.1-1.6.1-1.6zm-7.1 6.5 1-1.2 1.6.5-.9-1.3c-.7.6-1.2 1.2-1.7 2zm-3.2 8.5-.4-.5c-.3 1.1-.4 2.2-.5 3.4l.9-1.2 1.5.5-.9-1.4 1-1.3zm2-5.6-.3-.4c-.3.5-.5 1.1-.8 1.7l.2.1v1.6l1-1.3 1.6.5-1-1.3 1-1.3z" fill="#fff"/><path d="m30.6 13.3c2.1 0 4.2.3 6.2.8 5.6 1.6 10.5 5.1 13.8 9.9 1.4 2.4 2.6 6.1 2.4 7.2s-2.4 1.7-3.8 2.3-4.4 3.5-4 7.1 2.2 7.2 1.8 9.5-1.3 6.4-7.5 8.3c-1.3.5-2.8.7-4.2.8-3.3 0-5.1-1.7-7-2.9-1.7-1-3.6-1.4-5.5-1.3-.9 0-1.9.1-2.8.3-1.3.5-1.6.6-1.7.6 0 .4-.3.7-.6.7-.7.3-3.5 1.5-4.9 1.5h-.3c-1.1-.3-1.1-1-1.2-1.9-.2-.8-.5-1.6-.8-2.3-.2-.2-.2-.5 0-.7 0 0 .1-.1.1-.1-1.9-3.6-3.5-7.4-4.7-11.3-1.8-7.8.8-16 6.7-21.3 4.9-4.6 11.4-7.2 18-7.2m2.4 35.4c1.6 0 2.8-1.3 2.8-2.9s-1.3-2.8-2.9-2.8-2.8 1.3-2.8 2.9c0 .3.1.7.2 1 .4 1 1.5 1.8 2.7 1.8m-2.4-36.7c-7 0-13.8 2.7-18.9 7.5-6.3 5.7-9 14.3-7.1 22.6 1.1 3.8 2.6 7.4 4.5 10.9-.1.5-.1 1 .2 1.5v.1c.3.6.5 1.2.7 1.8 0 .1 0 .2.1.3 0 1.3 1 2.4 2.3 2.6h.5c1.8-.2 3.5-.7 5.1-1.5l.2-.1c.5-.2.9-.5 1.2-1l1.1-.4c.8-.2 1.5-.2 2.3-.2 1.7-.1 3.3.3 4.8 1.1l.7.5c2 1.6 4.4 2.6 7 2.6 1.6 0 3.1-.3 4.6-.8 7.4-2.4 8.1-7.7 8.4-9.4.1-1.8-.2-3.7-.8-5.4-.4-1.5-.8-2.9-1-4.5-.4-3.1 2.4-5.4 3.2-5.8l.8-.3c1.6-.6 3.4-1.3 3.7-2.9s-1.3-6-2.5-8.1c-3.5-5.1-8.6-8.8-14.6-10.5-2.1-.3-4.3-.6-6.5-.6zm2.4 35.3c-.9 0-1.6-.6-1.6-1.5s.6-1.6 1.5-1.6 1.6.6 1.6 1.5c0 .6-.3 1.2-.9 1.5-.2.1-.4.1-.6.1z"/><path d="m67.9 50.9c-.3-1.5-2-8.1-3.1-8.9-.3-.2-.7-.4-1.1-.4-.5 0-1 .1-1.5.2-.4.1-1 .2-1.6.3l-.6.1c-2.2.4-4.5.7-6.8.7h-.4l-.8-1.7-.5-1.1-.2-.4-.1-.3-.5-1.1-.1-.3-.3-.5-.8-1.7-.2-.4-.1-.2-.5-1.2-.2-.5-.2-.4c.7-.3 1.6-.6 2.7-1l.4-.1c.6-.2 1.5-.4 2.2-.6.3.2.7.3 1 .3.4 0 .7-.1 1-.3 1-.4 1.5-1.6 1-2.6v-.1c-.2-.5-1.9-3.8-1.9-3.8-.3-.5-.8-.8-1.3-.8-.2 0-.4 0-.5.1l-1.4.5-.2.1.8.4.9 2.8c-.8.2-1.9.5-2.7.8l-.3.1c-2.4.8-4.7 1.7-5.5 3-.4.7-3.1 5.4-5.3 9.3h-.2c-.3 0-.6.2-.8.5l-1.2 2.3c-.1.3-.1.6 0 .9l-1.8 3.1c-.5.8-.2 1.8.6 2.3.3.1.5.2.8.2h.6c.1 0 .1-.1.2-.1 2.5.3 14 1.6 15 1.7h.6c1 2.6 3 4.7 5.5 5.8 1.3.6 2.8.9 4.2.9 1.5 0 2.9-.2 4.3-.7.5-.2.9-.5 1.2-.9.6-.8.6-1.5-.3-6.3zm-2.7 4.3c-.8.2-1.6.3-2.4.3-.9 0-1.8-.2-2.7-.5-1.4-.6-2.6-1.7-3.3-3 1.9-.2 3.7-.5 4.7-.7l2.8-.6c.1.3.1.6.2.9.2.8.5 2.5.7 3.6zm-1.8-7.9-2.6.6c-1.8.3-3.7.6-5.5.7l-1-2.3c2.1-.1 4.2-.4 6.3-.7h.1l.4-.1c.6-.1 1.1-.2 1.6-.3.1.4.4 1.2.7 2.1zm-18.9-.4c.4-.5.5-1.2.3-1.8-.2-.7-.8-1.4-1.5-1.7l-1.2-.7.7-1.2c1.5 1.6 4.2 4 7.1 4.5l.5.1 1.1 2.4-7.9-.9c.4-.1.7-.4.9-.7zm.1-8.5 1.3-2.3 2.1 4.6.1.3.4 1c-1.4-1-2.8-2.2-3.9-3.6zm-3.8 9-1.2-.2.2-.3.1-.2zm12.2-22.2h.3c.2 0 .3.1.4.2l1.3 2.6c-.2-.1-.5-.2-.7-.2h-.3z"/><path d="m43 44c-.3-.2-.8-.4-1.3-.7l-1.5 2.8 1.5.8c.3.2.7.2 1.1.2.5 0 .9-.3 1.1-.7s.3-.8.2-1.2c-.2-.5-.6-.9-1.1-1.2z" fill="#fff"/><path d="m66.9 51.1c-.5-2.7-2.2-7.9-2.8-8.4-.2-.1-.3-.2-.5-.2-.4 0-.9.1-1.3.2-.5.1-1.1.2-1.7.3l-.5.1c-2.3.4-4.7.7-7 .7h-1.1c-1-2.2-2.2-4.9-3.3-7.4v-.3l-.8-1.8-.2-.3-.6-1.3c1.2-.6 2.4-1.1 3.6-1.5l.4-.1c1.2-.4 3.3-.9 3.4-.9.4-.1.6-.5.5-.9-.1-.3-.4-.6-.7-.6h-.2c-.1 0-2.3.5-3.5 1l-.3.1c-2.2.7-4.3 1.5-5 2.6-.4.8-3.2 5.7-5.6 9.9l-.5-.2h-.2c-.1 0-.1 0-.1.1l-1.2 2.4c0 .1 0 .2.1.2l.1.1.3.2-2.1 3.7c-.2.4 0 .8.4 1 .2.1.4.1.5 0s.2-.1.3-.2c2 .2 14.3 1.7 15.3 1.8h1.1c1.1 2.4 2.1 4.4 5.3 5.9 1.2.5 2.5.8 3.8.8s2.6-.2 3.9-.7c.3-.1.6-.3.8-.5.3-.7.3-1.3-.6-5.8zm-13.7-5.7c2.4-.1 4.8-.3 7.2-.8l.5-.1c.6-.1 1.3-.2 1.8-.3l.7-.1c.5 1.3 1 2.6 1.4 4l-3.8.8c-2.1.4-4.2.6-6.3.8l-1.9-4.2zm-7.2-11.4c.9 2 1.9 4.2 2.8 6.3l1.5 3.4c-3.2-.6-6.4-4.4-7-5.1zm6.7 15.7c-.9-.1-11.5-1.3-14.6-1.7l1.3-2.4.3.2 1.5-2.8h-.2l1.7-3c1.2 1.4 4.2 4.7 7.5 5.2.3.1.6.1 1 .1l2 4.4zm10 6.7c-1.1 0-2.1-.2-3.1-.6-2-.9-3.6-2.6-4.3-4.7 2-.2 4-.4 6-.8l3.7-.8c.2.6.3 1.2.4 1.9.2 1.2.7 3.7.7 4.5-1 .3-2.2.5-3.4.5z" fill="#fff"/><path d="m43 45.7v-.3h-.3v-.3h-.3v.3h-.3v.3h.3v.3h.3v-.3z"/><path d="m42.6 46.8c-.6 0-1.2-.5-1.2-1.2 0-.5.3-.9.7-1.1.6-.2 1.3.1 1.5.7s-.1 1.3-.7 1.5c0 0-.2 0-.3.1zm0-1.9c-.1 0-.2 0-.2 0-.3.1-.5.5-.4.8s.5.5.8.4c.3-.2.4-.6.2-.9 0-.1-.2-.2-.4-.3z"/></svg>