<?xml version="1.0" encoding="UTF-8"?><svg id="a" xmlns="http://www.w3.org/2000/svg" width="243.3" height="144.4" viewBox="0 0 243.3 144.4"><path d="M19.9,130.7c-11,0-19.9-8.9-19.9-19.9V19.9C0,8.9,8.9,0,19.9,0h203.5c11,0,19.9,8.9,19.9,19.7h0v91.1c0,11-8.9,19.9-19.9,19.9H19.9Z" fill="#fff" stroke-width="0"/><path d="M232.7,10.4c-2.5-2.5-5.8-3.9-9.3-3.9h-57l32.9,54.7,3.1.4,1.7,2.5v2.3l2.1.4,1.9,2.5v2.3l2.1.4,2.1,2.3v5.2c2.5,2.3,5.6,4.2,8.7,5.8,2.9,1.2,3.3,5.8,4.8,8.3,2.3,3.5,5.2,5,4.6,7-1.5,5.4-7,14.3-12.2,14.9h-20.3v8.7h25.3c7.3,0,13.3-6,13.3-13.3h0V19.9c0-3.7-1.3-7-3.8-9.5h0Z" fill="#c32f49" stroke-width="0"/><path d="M147.1,6.5H19.9c-7.3,0-13.3,6-13.3,13.3v90.9c0,7.3,6,13.3,13.1,13.3h82.6l-5-8.5h-9.8c0-24.5,8.3-38,18.2-40.6,1.4-.2.8-7-1-9.1-1.9,0-3.9,0-5.8-.2-1.2-.4-.4-1.7-.4-1.7l4.6-10-.6-2.7h-17c-.2,0,14.1-9.8,14.1-9.8.8-26.1,27.2-28,43.3-17.4,9.5,6.4,10.2,18.7,9.5,27.6-.2.6-2.5.2-2.5.2,0,0-1.5,9.7,2.7,9.7h18.7c7.5-.2,15.1,4.8,15.1,4.8l1.9-6.6L147.1,6.5ZM34,105.2c-5,.4-9.5-3.3-9.8-8.3-.4-5,3.3-9.5,8.3-9.8h1.6c5,.2,8.9,4.4,8.7,9.5-.3,4.8-4.2,8.4-8.8,8.6h0Z" fill="#002b59" stroke-width="0"/><path d="M233.1,138.8h-2.1v5.6h-1.4v-5.6h-2.1v-1.2h5.6v1.2ZM242.3,144.4h-1.3v-5.4h0l-1.9,5.4h-1.4l-1.9-5.4h0v5.4h-1.4v-6.8h2.5l1.5,4.4h0l1.7-4.4h2.5l-.3,6.8h0Z" fill="#fff" stroke-width="0"/></svg>